<svg xmlns="http://www.w3.org/2000/svg" viewBox="0 0 64 80" x="0px" y="0px"><circle cx="6" cy="6" r="1.5"/><circle cx="13" cy="6" r="1.5"/><path d="M1.5,10.5h61v-9H1.5ZM20,3.5A2.5,2.5,0,1,1,17.5,6,2.5,2.5,0,0,1,20,3.5Zm-7,0A2.5,2.5,0,1,1,10.5,6,2.5,2.5,0,0,1,13,3.5Zm-7,0A2.5,2.5,0,1,1,3.5,6,2.5,2.5,0,0,1,6,3.5Z"/><circle cx="20" cy="6" r="1.5"/><path d="M43,31.5A7.5,7.5,0,1,0,35.5,24,7.508,7.508,0,0,0,43,31.5Zm-5.354-6.854a.5.5,0,0,1,.708,0L41,27.293l6.646-6.647a.5.5,0,0,1,.708.708l-7,7a.5.5,0,0,1-.708,0l-3-3A.5.5,0,0,1,37.646,24.646Z"/><path d="M39.5,50.5h6.571a.5.5,0,0,1,.605-.617l.824.211V32.5h-8Zm2.5-15a.5.5,0,0,1,.5-.5h2a.5.5,0,0,1,.5.5v2a.5.5,0,0,1-.5.5h-2a.5.5,0,0,1-.5-.5Zm0,5a.5.5,0,0,1,.5-.5h2a.5.5,0,0,1,.5.5v2a.5.5,0,0,1-.5.5h-2a.5.5,0,0,1-.5-.5Zm0,5a.5.5,0,0,1,.5-.5h2a.5.5,0,0,1,.5.5v2a.5.5,0,0,1-.5.5h-2a.5.5,0,0,1-.5-.5Z"/><path d="M24.5,32.5h-8v18h8ZM22,47.5a.5.5,0,0,1-.5.5h-2a.5.5,0,0,1-.5-.5v-2a.5.5,0,0,1,.5-.5h2a.5.5,0,0,1,.5.5Zm0-5a.5.5,0,0,1-.5.5h-2a.5.5,0,0,1-.5-.5v-2a.5.5,0,0,1,.5-.5h2a.5.5,0,0,1,.5.5Zm0-5a.5.5,0,0,1-.5.5h-2a.5.5,0,0,1-.5-.5v-2a.5.5,0,0,1,.5-.5h2a.5.5,0,0,1,.5.5Z"/><path d="M48.948,56.847l1.479-2.555a.5.5,0,0,1,.169-.174L53.1,52.561l-5.828-1.492Z"/><path d="M28.5,45a.5.5,0,0,1,.5-.5h6a.5.5,0,0,1,.5.5v5.5h3V31.2a8.56,8.56,0,0,1-2.7-2.7H25.5v22h3ZM33,31.5a.5.5,0,0,1,.5-.5h2a.5.5,0,0,1,.5.5v2a.5.5,0,0,1-.5.5h-2a.5.5,0,0,1-.5-.5Zm0,4a.5.5,0,0,1,.5-.5h2a.5.5,0,0,1,.5.5v2a.5.5,0,0,1-.5.5h-2a.5.5,0,0,1-.5-.5Zm0,4a.5.5,0,0,1,.5-.5h2a.5.5,0,0,1,.5.5v2a.5.5,0,0,1-.5.5h-2a.5.5,0,0,1-.5-.5Zm-5-8a.5.5,0,0,1,.5-.5h2a.5.5,0,0,1,.5.5v2a.5.5,0,0,1-.5.5h-2a.5.5,0,0,1-.5-.5Zm0,4a.5.5,0,0,1,.5-.5h2a.5.5,0,0,1,.5.5v2a.5.5,0,0,1-.5.5h-2a.5.5,0,0,1-.5-.5Zm0,6v-2a.5.5,0,0,1,.5-.5h2a.5.5,0,0,1,.5.5v2a.5.5,0,0,1-.5.5h-2A.5.5,0,0,1,28,41.5Z"/><path d="M1.5,62.5h61v-51H1.5ZM15.5,32a.5.5,0,0,1,.5-.5h8.5V28a.5.5,0,0,1,.5-.5H35.263a8.5,8.5,0,1,1,11.728,4H48a.5.5,0,0,1,.5.5V50.35l5.985,1.533a.5.5,0,0,1,.14.909l-3.4,2.11-2,3.46a.5.5,0,0,1-.433.249.426.426,0,0,1-.061,0,.5.5,0,0,1-.42-.357L46.359,51.5H16a.5.5,0,0,1-.5-.5Z"/><rect x="29.5" y="45.5" width="5" height="5"/><text x="0" y="79" fill="#000000" font-size="5px" font-weight="bold" font-family="'Helvetica Neue', Helvetica, Arial-Unicode, Arial, Sans-serif">Created by ToZIcon</text><text x="0" y="84" fill="#000000" font-size="5px" font-weight="bold" font-family="'Helvetica Neue', Helvetica, Arial-Unicode, Arial, Sans-serif">from the Noun Project</text></svg>